<svg width="73" height="72" viewBox="0 0 73 72" fill="none" xmlns="http://www.w3.org/2000/svg">
<g id="AI icon">
<g id="Vector">
<path d="M20 28.1857C24.3039 26.5698 27.7048 23.1807 29.3356 18.8825L34.6301 4.92842C35.2829 3.20773 37.7171 3.20773 38.3699 4.92842L43.6643 18.8825C45.2952 23.1807 48.6961 26.5698 53 28.1857L67.5129 33.6345C69.2422 34.2837 69.2422 36.73 67.5129 37.3792L53.1116 42.7861C48.7432 44.4262 45.3084 47.8916 43.7071 52.2744L38.3785 66.8585C37.7386 68.61 35.2614 68.61 34.6215 66.8585L29.2929 52.2744C27.6916 47.8916 24.2568 44.4262 19.8884 42.7861L5.48712 37.3792C3.75776 36.73 3.75775 34.2837 5.48712 33.6345L20 28.1857Z" fill="url(#paint0_linear_306_3822)"/>
<path d="M52.1475 9.97302C55.1636 8.84068 57.5468 6.46573 58.6896 3.45366C59.1471 2.24787 60.8529 2.24787 61.3104 3.45366C62.4532 6.46573 64.8364 8.84068 67.8524 9.97302L67.9739 10.0186C69.1966 10.4777 69.1942 12.2082 67.9714 12.6673C64.8865 13.8255 62.4575 16.274 61.3266 19.3691C60.8747 20.606 59.1253 20.606 58.6734 19.3691C57.5425 16.274 55.1135 13.8255 52.0286 12.6673C50.8058 12.2082 50.8034 10.4777 52.0261 10.0186L52.1475 9.97302Z" fill="url(#paint1_linear_306_3822)"/>
</g>
</g>
<defs>
<linearGradient id="paint0_linear_306_3822" x1="27.5" y1="3" x2="85.611" y2="48.2149" gradientUnits="userSpaceOnUse">
<stop stop-color="#10C700"/>
<stop offset="0.81" stop-color="#9EF01A"/>
</linearGradient>
<linearGradient id="paint1_linear_306_3822" x1="27.5" y1="3" x2="85.611" y2="48.2149" gradientUnits="userSpaceOnUse">
<stop stop-color="#10C700"/>
<stop offset="0.81" stop-color="#9EF01A"/>
</linearGradient>
</defs>
</svg>
